# xmcd CD database file
#
# Track frame offsets:
#	150
#	40385
#	79840
#	115785
#	168102
#
# Disc length: 2483 seconds
#
# Revision: 0
# Processed by: cddbd v1.4PL0 Copyright (c) Steve Scherf et al.
# Submitted via: CDex 1.50
#
DISCID=3309b105
DTITLE=Al DiMeola, John McLaughlin and Paco DeLucia - Friday Night in San Francisco
DYEAR=1900
DGENRE=Jazz
TTITLE0=Mediterranean Sundance/Rio Ancho  
TTITLE1=Short Tales of the Black Forest 
TTITLE2=Frevo Rasgado
TTITLE3=Fantasia Suite
TTITLE4=Guardian Angel [Studio Recording] 
EXTD=
EXTT0=
EXTT1=
EXTT2=
EXTT3=
EXTT4=
PLAYORDER=
